<?xml version="1.0" encoding="UTF-8" standalone="no"?>
<svg
   xmlns:dc="http://purl.org/dc/elements/1.1/"
   xmlns:cc="http://creativecommons.org/ns#"
   xmlns:rdf="http://www.w3.org/1999/02/22-rdf-syntax-ns#"
   xmlns:svg="http://www.w3.org/2000/svg"
   xmlns="http://www.w3.org/2000/svg"
   version="1.1"
   id="svg2"
   height="256"
   width="256">
  <defs
     id="defs4" />
  <metadata
     id="metadata7">
    <rdf:RDF>
      <cc:Work
         rdf:about="">
        <dc:format>image/svg+xml</dc:format>
        <dc:type
           rdf:resource="http://purl.org/dc/dcmitype/StillImage" />
        <dc:title></dc:title>
      </cc:Work>
    </rdf:RDF>
  </metadata>
  <g
     transform="translate(0,-796.36216)"
     id="layer1">
    <circle
       r="128"
       cy="924.36218"
       cx="128"
       id="circle4258"
       style="opacity:1;fill:#d4b479;fill-opacity:1;stroke:none;stroke-width:4;stroke-linecap:round;stroke-linejoin:round;stroke-miterlimit:4;stroke-dasharray:none;stroke-dashoffset:0;stroke-opacity:1" />
    <path
       id="path4260"
       d="m 128,796.3622 a 128,128 0 0 0 -128,128 128,128 0 0 0 48.070312,99.9472 L 66.845703,998.3133 A 96,96 0 0 1 32,924.3622 a 96,96 0 0 1 96,-96 96,96 0 0 1 96,96 96,96 0 0 1 -33.47656,72.6953 l 18.70312,26.1426 A 128,128 0 0 0 256,924.3622 a 128,128 0 0 0 -128,-128 z m 0.29102,2.916 3.88867,8.5117 9.21484,1.6211 -6.89258,6.3281 1.30469,9.2637 -8.14844,-4.5996 -8.4082,4.1054 1.85742,-9.1718 -6.50195,-6.7266 9.29492,-1.0683 4.39063,-8.2637 z m -53.000004,11.2226 3.888672,8.5098 9.214843,1.6211 -6.892578,6.3281 1.304688,9.2637 -8.148438,-4.5996 -8.408203,4.1055 1.857422,-9.17 -6.501953,-6.7285 9.294922,-1.0683 4.390625,-8.2618 z m 105.417964,0 4.39063,8.2618 9.29492,1.0683 -6.50195,6.7285 1.85742,9.17 -8.4082,-4.1055 -8.14844,4.5996 1.30469,-9.2637 -6.89258,-6.3281 9.21484,-1.6211 3.88867,-8.5098 z m -143.417964,35 3.888672,8.5098 9.214843,1.6211 -6.892578,6.3281 1.304688,9.2637 -8.148438,-4.5996 -8.408203,4.1055 1.857422,-9.17 -6.501953,-6.7285 9.294922,-1.0683 4.390625,-8.2618 z m 181.417964,0 4.39063,8.2618 9.29492,1.0683 -6.50195,6.7285 1.85742,9.17 -8.4082,-4.1055 -8.14844,4.5996 1.30469,-9.2637 -6.89258,-6.3281 9.21484,-1.6211 3.88867,-8.5098 z m -201.417964,49 3.888672,8.5098 9.214843,1.6211 -6.892578,6.3281 1.304688,9.2637 -8.148438,-4.5996 -8.408203,4.1055 1.857422,-9.17 -6.5019532,-6.7285 9.2949222,-1.0683 4.390625,-8.2618 z m 221.417964,0 4.39063,8.2618 9.29492,1.0683 -6.50195,6.7285 1.85742,9.17 -8.4082,-4.1055 -8.14844,4.5996 1.30469,-9.2637 -6.89258,-6.3281 9.21484,-1.6211 3.88867,-8.5098 z m -217.417964,50 3.888672,8.5098 9.214843,1.6211 -6.892578,6.3281 1.304688,9.2637 -8.148438,-4.5996 -8.408203,4.1055 1.857422,-9.17 -6.5019532,-6.7285 9.2949222,-1.0683 4.390625,-8.2618 z m 213.417964,0 4.39063,8.2618 9.29492,1.0683 -6.50195,6.7285 1.85742,9.17 -8.4082,-4.1055 -8.14844,4.5996 1.30469,-9.2637 -6.89258,-6.3281 9.21484,-1.6211 3.88867,-8.5098 z m -189.417964,40 3.888672,8.5098 9.214843,1.6211 -6.892578,6.3281 1.304688,9.2637 -8.148438,-4.5996 -8.408203,4.1055 1.857422,-9.17 -6.501953,-6.7285 9.294922,-1.0683 4.390625,-8.2618 z m 166.417964,0 4.39063,8.2618 9.29492,1.0683 -6.50195,6.7285 1.85742,9.17 -8.4082,-4.1055 -8.14844,4.5996 1.30469,-9.2637 -6.89258,-6.3281 9.21484,-1.6211 3.88867,-8.5098 z"
       style="opacity:1;fill:#281f1a;fill-opacity:1;stroke:none;stroke-width:4;stroke-linecap:round;stroke-linejoin:round;stroke-miterlimit:4;stroke-dasharray:none;stroke-dashoffset:0;stroke-opacity:1" />
    <path
       style="fill:#281f1a;fill-opacity:1"
       d="m 159.50173,1043.7387 c 0,-0.5429 -1.16916,-0.6937 -2.59813,-0.3351 -5.34791,1.3424 -4.78012,-0.8682 1.23421,-4.805 6.20156,-4.0593 10.72736,-8.3753 12.88697,-12.2897 2.27292,-4.1197 1.41208,3.4551 -1.04058,9.1564 -1.75619,4.0824 -3.21927,5.7515 -6.38058,7.2789 -2.25604,1.0899 -4.10189,1.5375 -4.10189,0.9945 z m -40.94203,-5.1869 c -11.24622,-1.338 -18.57095,-3.2663 -19.52697,-5.1407 -0.5007,-0.9818 -1.18505,-3.2402 -1.5208,-5.0189 l -0.61046,-3.2338 6.34736,3.0464 c 4.49025,2.1551 9.52545,3.4434 17.20969,4.4031 8.72714,1.09 10.02618,1.4575 6.60861,1.8696 -3.26183,0.3935 -2.60602,0.5547 2.81242,0.6918 7.85958,0.1989 17.5702,-2.3772 25.36847,-6.7297 l 4.78543,-2.671 -3.19029,2.677 c -11.9907,10.062 -20.2743,12.2486 -38.28346,10.1062 z m -17.01488,-8.5209 c -0.36149,-0.5848 -1.13578,-1.0634 -1.72066,-1.0634 -0.58489,0 -0.76769,0.4786 -0.4062,1.0634 0.36148,0.585 1.13578,1.0635 1.72066,1.0635 0.58489,0 0.76768,-0.4785 0.4062,-1.0635 z m 34.69705,1.7747 c 2.35055,-1.0456 0.99982,-1.2429 -8.50743,-1.2429 -9.24947,0 -12.18034,-0.4066 -16.14107,-2.2393 -8.98814,-4.1587 -15.2593,-11.395 -17.40804,-20.0868 -0.43297,-1.7514 -1.34693,-3.8585 -2.03101,-4.6826 -1.18733,-1.4303 -4.16843,-16.1487 -3.42197,-16.8951 0.19687,-0.1969 1.87365,1.7526 3.72617,4.3322 2.67135,3.7198 3.88032,4.5923 5.84334,4.217 1.84597,-0.3529 3.38364,0.5364 6.04933,3.4983 4.30962,4.7886 13.70815,9.5801 14.95205,7.6227 0.79427,-1.2498 0.97061,-1.0354 1.25038,1.5209 0.0731,0.668 1.36268,2.1326 2.86569,3.2548 2.35303,1.7567 3.13611,1.8566 5.63555,0.7177 2.24408,-1.0224 3.67834,-1.0421 6.32057,-0.087 5.55685,2.0094 20.19459,0.8896 24.02506,-1.838 4.68461,-3.3357 10.46873,-10.4597 13.15896,-16.2072 1.29911,-2.7754 2.71479,-5.0659 3.14594,-5.0898 1.21338,-0.067 0.0133,8.9599 -1.75298,13.1875 -0.86954,2.081 -2.08989,3.7837 -2.71189,3.7837 -0.622,0 -2.78858,2.5914 -4.81464,5.7587 -2.02604,3.1672 -5.13628,6.7929 -6.91158,8.0571 -1.77533,1.264 -2.96772,2.7192 -2.64976,3.2338 0.87639,1.418 -3.53897,3.9049 -13.17943,7.4233 -8.65501,3.1587 -12.77912,4.1343 -7.44324,1.7607 z m -44.18879,-2.3215 c -2.30433,-2.4863 -4.42752,-8.7521 -3.3357,-9.8439 0.87215,-0.8723 5.91515,5.3455 5.91515,7.2929 0,1.05 0.47854,2.2047 1.06343,2.5662 0.58488,0.3615 1.06343,1.1074 1.06343,1.6578 0,1.8198 -2.19124,1.0407 -4.70631,-1.673 z m -13.63785,-2.9964 c -0.43866,-1.0713 -0.76724,-3.464 -0.73017,-5.3171 0.0658,-3.2879 0.0926,-3.306 1.11236,-0.7514 0.57473,1.4396 0.9033,3.8323 0.73017,5.3172 -0.26936,2.3097 -0.42992,2.4182 -1.11237,0.7513 z m 4.54932,-22.4325 c -1.87742,-4.938 -1.13238,-15.2416 1.00651,-13.9197 0.44737,0.2765 0.49027,2.3076 0.0953,4.5135 -0.39493,2.2059 -0.36919,5.6824 0.0572,7.7255 0.95914,4.5961 0.30824,5.54 -1.15904,1.6807 z m 58.72474,-11.9486 c -2.80471,-1.1317 -1.14067,-2.486 3.05465,-2.486 3.77625,0 4.20041,0.2211 3.06007,1.5952 -1.31647,1.5862 -3.57567,1.9153 -6.11472,0.8908 z m -17.81245,-6.5731 c -2.74932,-0.686 -2.23486,-0.9018 3.722,-1.5609 3.80176,-0.4207 13.37263,-0.9952 21.2686,-1.2768 14.08513,-0.5021 14.25586,-0.4814 9.03915,1.0992 -5.92063,1.7938 -29.06844,2.9764 -34.02975,1.7385 z m 53.8092,-5.1551 c 0.0582,-1.0581 0.48914,-3.1202 0.95743,-4.5824 0.76477,-2.388 0.8622,-2.2591 0.95742,1.2665 0.0582,2.1589 -0.37253,4.2209 -0.95742,4.5824 -0.58488,0.3615 -1.01573,-0.2085 -0.95743,-1.2665 z m -90.327,-4.2092 c -0.56798,-2.2523 -1.33893,-5.8897 -1.71322,-8.083 -0.53579,-3.1397 -1.17919,-4.0141 -3.02506,-4.1113 -1.95577,-0.1029 -2.01832,-0.2074 -0.37728,-0.6301 1.50242,-0.3871 1.85825,-1.2495 1.50595,-3.6499 -0.39792,-2.7111 -0.25435,-2.9361 1.0447,-1.637 0.8283,0.8283 1.69019,3.3637 1.91531,5.6342 0.22512,2.2705 0.90586,6.718 1.51274,9.8833 1.28451,6.6996 0.65173,8.6011 -0.86314,2.5938 z m 50.15629,-0.245 c -2.80859,-2.0346 -5.02721,-4.9219 -6.6111,-8.6038 l -2.38391,-5.5415 -3.09589,4.8817 c -2.89905,4.5713 -5.2696,6.2783 -5.2696,3.7945 0,-1.369 8.45396,-10.6105 9.70631,-10.6105 0.5104,0 0.92799,1.0899 0.92799,2.4219 0,7.8925 11.39009,12.1647 23.1296,8.6755 3.86095,-1.1476 2.82526,1.3371 -2.02056,4.8474 -5.5217,3.9999 -9.00218,4.0325 -14.38284,0.1348 z m 24.38824,-7.3472 c -2.48075,-4.4229 -4.32314,-8.229 -4.0942,-8.458 0.22893,-0.2289 2.09164,1.2592 4.13933,3.3069 2.52164,2.5216 3.9627,5.1414 4.46563,8.1182 0.40841,2.4174 0.57543,4.5481 0.37113,4.7349 -0.20428,0.1868 -2.40113,-3.2791 -4.88189,-7.702 z M 72.56872,957.1752 c -3.617,-4.3881 -6.68007,-13.3467 -6.57303,-19.2244 0.0736,-4.0412 0.12813,-3.9775 1.906,2.2284 1.00664,3.5138 3.34012,9.6152 5.18552,13.5588 1.8454,3.9435 3.17598,7.17 2.95685,7.17 -0.21914,0 -1.78303,-1.6798 -3.47534,-3.7328 z m 112.14098,-6.6356 c 0.8521,-5.5219 1.37778,-5.691 1.37778,-0.4431 0,2.437 -0.44846,4.4309 -0.99657,4.4309 -0.55204,0 -0.72208,-1.7788 -0.38121,-3.9878 z M 74.88156,941.6408 c -1.76819,-2.8609 -2.21997,-7.9498 -0.82174,-9.2559 2.44563,-2.2846 1.70975,-5.1802 -1.49346,-5.8766 -1.60843,-0.3497 -3.64225,-1.1153 -4.51957,-1.7015 -1.3511,-0.9027 -1.14774,-1.4831 1.32928,-3.7939 3.85822,-3.5993 3.80057,-5.8324 -0.15057,-5.8324 -3.66027,0 -4.83219,2.8661 -4.56575,11.1661 0.12738,3.9679 -0.0769,4.7774 -0.80496,3.1902 -2.5976,-5.6625 -0.56307,-13.3265 4.69825,-17.6982 1.906,-1.5837 1.96117,-2.0104 0.59106,-4.5705 -1.2841,-2.3993 -1.2965,-3.5752 -0.0825,-7.8241 0.78575,-2.7502 1.64994,-6.6752 1.92043,-8.7223 0.27047,-2.0472 1.3326,-4.6791 2.36026,-5.8489 1.02766,-1.1698 2.1727,-4.4808 2.54451,-7.3578 1.47043,-11.3776 9.51545,-23.0936 19.64244,-28.6054 2.87764,-1.5662 9.71525,-4.1052 15.19472,-5.6423 17.92679,-5.0287 30.01957,-4.4338 36.23581,1.7824 1.73239,1.7324 5.3827,4.4324 8.11178,6 6.47499,3.7193 12.62118,9.8405 10.93007,10.8857 -0.74803,0.4623 -0.93987,1.5999 -0.4751,2.8172 0.62186,1.6288 0.0581,1.4362 -2.78619,-0.9516 -7.76655,-6.52 -30.51741,-15.489 -35.37704,-13.9466 -2.31799,0.7357 -4.21029,4.0358 -3.45009,6.0169 0.30821,0.8031 2.57957,2.0058 5.04747,2.6725 2.46791,0.6667 5.35485,1.8545 6.41542,2.6395 1.8245,1.3505 1.75295,1.648 -1.32929,5.5265 -3.94283,4.9614 -4.07146,5.648 -0.63644,3.3973 1.44164,-0.9446 4.01504,-1.7175 5.71865,-1.7175 1.70363,0 3.73118,-0.7635 4.50567,-1.6967 1.03888,-1.2518 2.53725,-1.5438 5.71323,-1.1135 4.06885,0.5513 3.98415,0.469 -1.54383,-1.5007 -3.21687,-1.1462 -6.56668,-2.3547 -7.444,-2.6855 -1.22875,-0.4632 -0.98448,-0.9415 1.06343,-2.0819 5.43272,-3.0255 12.57471,-1.328 15.82413,3.7612 1.60314,2.5108 1.59332,2.5762 -0.17672,1.1777 -1.03083,-0.8144 -2.1817,-1.1733 -2.55748,-0.7975 -0.3758,0.3757 -0.24459,0.6939 0.29155,0.7069 0.53615,0.013 2.17117,1 3.63339,2.1935 l 2.65858,2.1698 -2.65858,-0.7246 -2.65858,-0.7247 3.01957,3.2082 3.01957,3.2082 -4.083,4.5325 c -6.18983,6.8712 -11.05447,8.6128 -21.81155,7.8086 -6.31471,-0.4721 -10.68875,-0.1996 -15.23777,0.9493 -8.05375,2.034 -14.18781,2.8565 -22.54191,3.0224 -5.46101,0.1085 -6.99655,0.5632 -8.96002,2.6532 -2.36231,2.5145 -2.36415,2.5471 -0.60327,10.6614 0.97145,4.4766 2.52208,8.9744 3.44585,9.9951 1.54296,1.705 1.39896,2.4052 -1.77029,8.6084 -1.89743,3.7139 -3.5086,8.5035 -3.58037,10.6437 -0.15492,4.6193 -2.25493,7.5525 -4.82348,6.7373 -1.2518,-0.3973 -2.02621,0.1078 -2.40888,1.5711 -0.60739,2.3227 -3.36392,2.9074 -4.56263,0.9678 z m 46.61235,-92.7678 c -1.02893,-0.5512 -2.06725,-1.168 -2.30736,-1.3706 -0.8548,-0.7212 3.4545,-4.6354 5.12097,-4.6514 1.2888,-0.012 1.36695,-0.2251 0.32541,-0.8859 -0.78888,-0.5005 -3.72318,-0.057 -6.91229,1.045 -3.04784,1.053 -6.73788,1.9428 -8.2001,1.9772 -1.46222,0.034 -4.54633,0.9105 -6.85359,1.9468 l -4.19501,1.8841 3.37358,1.3974 c 3.01953,1.2508 7.35317,1.2508 11.92874,0 1.14682,-0.3134 1.6916,0.5729 1.93835,3.1538 l 0.3432,3.5898 3.65446,-3.542 c 3.27917,-3.1784 3.46234,-3.645 1.78364,-4.5442 z m 31.09554,92.8933 c -0.36149,-0.5849 -0.1787,-1.0634 0.40619,-1.0634 0.58488,0 1.35918,0.4785 1.72067,1.0634 0.36147,0.5849 0.17868,1.0634 -0.4062,1.0634 -0.58489,0 -1.35919,-0.4785 -1.72066,-1.0634 z m -6.35554,-4.0649 c -0.72158,-1.848 1.11675,-5.1885 3.58106,-6.5074 1.36916,-0.7327 1.80823,-1.8557 1.45272,-3.7154 -0.40205,-2.1032 0.0821,-2.9348 2.29598,-3.9435 2.14599,-0.9778 3.09867,-0.985 4.05274,-0.031 1.75463,1.7546 6.99847,1.5501 13.04083,-0.5088 5.1116,-1.7417 5.17038,-1.7356 7.17986,0.7461 1.54164,1.9038 1.8576,3.4043 1.32138,6.2756 -0.38758,2.0755 -0.86944,3.9411 -1.07081,4.1459 -0.82679,0.8408 -2.63449,-1.1613 -2.63449,-2.9178 0,-1.6963 -0.89196,-1.8377 -8.7733,-1.3913 -8.39112,0.4752 -10.31606,1.2567 -10.35215,4.2026 -0.0117,0.9591 2.46907,1.3293 8.90909,1.3293 6.6761,0 9.06959,0.3758 9.4976,1.4912 0.31473,0.8201 0.28616,1.7772 -0.0635,2.1268 -1.14422,1.1442 -9.39635,0.6661 -10.68132,-0.6189 -0.95771,-0.9577 -1.826,-0.9615 -3.66884,-0.016 -3.21423,1.6491 -13.3702,1.1679 -14.08688,-0.6675 z m -34.0548,-0.2043 c 1.75466,-0.5829 6.5401,-1.5805 10.6343,-2.2168 4.09421,-0.6363 7.89863,-1.5907 8.45427,-2.1209 0.55565,-0.5302 2.35017,-0.964 3.98785,-0.964 3.0892,0 3.54683,-0.6469 2.08597,-2.9487 -0.68658,-1.0818 -1.63734,-1.0285 -4.735,0.2658 -2.13175,0.8907 -6.55474,1.6195 -9.82885,1.6195 -6.26908,0 -9.04936,0.9812 -13.01316,4.5926 -2.30209,2.0973 -2.50037,2.1128 -4.25373,0.3319 -1.74567,-1.7732 -1.67703,-2.0089 1.3512,-4.6419 1.75466,-1.5257 3.04968,-3.4097 2.87782,-4.1868 -0.23894,-1.0804 1.63813,-1.4145 7.97572,-1.4195 5.27211,0 9.39664,-0.5847 11.33419,-1.5952 5.19446,-2.7091 7.84195,-2.0742 10.00518,2.3993 1.52949,3.1629 1.70845,4.7028 0.86514,7.444 -1.06523,3.4626 -3.25175,4.6104 -4.07542,2.1394 -0.34307,-1.0292 -1.11719,-1.0002 -3.54476,0.1331 -1.70822,0.7975 -7.652,1.6251 -13.20842,1.839 -7.73279,0.2978 -9.35423,0.1405 -6.9123,-0.6708 z m 72.55147,-17.6149 c -0.69629,-21.7913 -2.80974,-31.4319 -10.23931,-46.7071 -5.72709,-11.775 -6.91764,-15.4116 -5.05325,-15.4356 0.67636,-0.01 -0.68444,-1.7167 -3.02399,-3.7955 -4.20931,-3.7403 -4.21653,-3.7595 -0.69216,-1.8452 6.12781,3.3285 18.46988,18.9539 22.06177,27.9309 1.56253,3.9052 1.72619,7.5749 1.25434,28.1251 -0.41597,18.116 -0.91504,24.3447 -2.13754,26.6779 -1.49078,2.8453 -1.63243,1.8693 -2.16986,-14.9505 z m -67.47994,-0.1215 c 1.03469,-0.2696 2.47031,-0.2518 3.19029,0.039 0.71998,0.2913 -0.12657,0.5119 -1.88123,0.4903 -1.75466,-0.022 -2.34374,-0.26 -1.30906,-0.5297 z"
       id="path4262" />
  </g>
</svg>
